{
	"asset":{
		"generator":"Khronos glTF Blender I/O v4.0.44",
		"version":"2.0"
	},
	"scene":0,
	"scenes":[
		{
			"name":"Scene",
			"nodes":[
				0
			]
		}
	],
	"nodes":[
		{
			"mesh":0,
			"name":"imagetostl_mesh0",
			"scale":[
				0.0059734126552939415,
				0.0059734126552939415,
				0.0059734126552939415
			]
		}
	],
	"materials":[
		{
			"doubleSided":true,
			"name":"mat0",
			"pbrMetallicRoughness":{
				"baseColorFactor":[
					0.985501229763031,
					1,
					0.9892265796661377,
					1
				],
				"metallicFactor":0,
				"roughnessFactor":0.4000000059604645
			}
		},
		{
			"doubleSided":true,
			"name":"\u041c\u0430\u0442\u0435\u0440\u0438\u0430\u043b",
			"pbrMetallicRoughness":{
				"baseColorFactor":[
					0.003818924305960536,
					0,
					0.8019033670425415,
					1
				],
				"metallicFactor":0,
				"roughnessFactor":0.4000000059604645
			}
		}
	],
	"meshes":[
		{
			"name":"imagetostl_mesh0",
			"primitives":[
				{
					"attributes":{
						"COLOR_0":0,
						"POSITION":1,
						"NORMAL":2,
						"TEXCOORD_0":3
					},
					"indices":4,
					"material":0
				},
				{
					"attributes":{
						"COLOR_0":5,
						"POSITION":6,
						"NORMAL":7,
						"TEXCOORD_0":8
					},
					"indices":9,
					"material":1
				}
			]
		}
	],
	"accessors":[
		{
			"bufferView":0,
			"componentType":5123,
			"count":594311,
			"normalized":true,
			"type":"VEC4"
		},
		{
			"bufferView":1,
			"componentType":5126,
			"count":594311,
			"max":[
				1220,
				2109,
				-727
			],
			"min":[
				-1220,
				-45,
				-7045
			],
			"type":"VEC3"
		},
		{
			"bufferView":2,
			"componentType":5126,
			"count":594311,
			"type":"VEC3"
		},
		{
			"bufferView":3,
			"componentType":5126,
			"count":594311,
			"type":"VEC2"
		},
		{
			"bufferView":4,
			"componentType":5125,
			"count":691002,
			"type":"SCALAR"
		},
		{
			"bufferView":5,
			"componentType":5123,
			"count":136589,
			"normalized":true,
			"type":"VEC4"
		},
		{
			"bufferView":6,
			"componentType":5126,
			"count":136589,
			"max":[
				1220,
				2014,
				-720
			],
			"min":[
				-1220,
				-45,
				-7045
			],
			"type":"VEC3"
		},
		{
			"bufferView":7,
			"componentType":5126,
			"count":136589,
			"type":"VEC3"
		},
		{
			"bufferView":8,
			"componentType":5126,
			"count":136589,
			"type":"VEC2"
		},
		{
			"bufferView":9,
			"componentType":5125,
			"count":161988,
			"type":"SCALAR"
		}
	],
	"bufferViews":[
		{
			"buffer":0,
			"byteLength":4754488,
			"byteOffset":0,
			"target":34962
		},
		{
			"buffer":0,
			"byteLength":7131732,
			"byteOffset":4754488,
			"target":34962
		},
		{
			"buffer":0,
			"byteLength":7131732,
			"byteOffset":11886220,
			"target":34962
		},
		{
			"buffer":0,
			"byteLength":4754488,
			"byteOffset":19017952,
			"target":34962
		},
		{
			"buffer":0,
			"byteLength":2764008,
			"byteOffset":23772440,
			"target":34963
		},
		{
			"buffer":0,
			"byteLength":1092712,
			"byteOffset":26536448,
			"target":34962
		},
		{
			"buffer":0,
			"byteLength":1639068,
			"byteOffset":27629160,
			"target":34962
		},
		{
			"buffer":0,
			"byteLength":1639068,
			"byteOffset":29268228,
			"target":34962
		},
		{
			"buffer":0,
			"byteLength":1092712,
			"byteOffset":30907296,
			"target":34962
		},
		{
			"buffer":0,
			"byteLength":647952,
			"byteOffset":32000008,
			"target":34963
		}
	],
	"buffers":[
		{
			"byteLength":32647960,
			"uri":"mod123.bin"
		}
	]
}
